<svg width="36" height="36" fill="none" xmlns="http://www.w3.org/2000/svg"><path d="M18 2.5c-8.82 0-16 6.28-16 14s7.18 14 16 14a18 18 0 0 0 4.88-.68l5.53 3.52a1 1 0 0 0 1.54-.84v-6.73a13.001 13.001 0 0 0 4-9.27C34 8.78 26.82 2.5 18 2.5Zm10.29 22.11a1.002 1.002 0 0 0-.32.73v5.34l-4.38-2.79a.999.999 0 0 0-.83-.11 16.001 16.001 0 0 1-4.76.72c-7.72 0-14-5.38-14-12s6.28-12 14-12 14 5.38 14 12a11.081 11.081 0 0 1-3.71 8.11Z" fill="#FFFDF5"/><path d="M25 15.5H11a1 1 0 0 0 0 2h14a1 1 0 0 0 0-2ZM21.75 20.5h-7.5a1 1 0 0 0 0 2h7.5a1 1 0 0 0 0-2ZM11.28 12.5h13.44a1 1 0 0 0 0-2H11.28a1 1 0 0 0 0 2Z" fill="#FFFDF5"/></svg>