<svg width="18" height="18" fill="none" xmlns="http://www.w3.org/2000/svg"><path d="M9 17.017a.555.555 0 0 1-.34-.117c-3.088-2.4-5.216-4.467-6.705-6.506C.055 7.79-.378 5.384.666 3.244 1.411 1.717 3.55.467 6.05 1.194A5.483 5.483 0 0 1 9 3.29a5.483 5.483 0 0 1 2.95-2.095c2.494-.716 4.639.523 5.383 2.05 1.045 2.14.611 4.545-1.289 7.15-1.489 2.04-3.617 4.106-6.705 6.506a.555.555 0 0 1-.34.117ZM4.628 2.1a3.278 3.278 0 0 0-2.962 1.628c-.86 1.766-.472 3.733 1.19 6.005A31.742 31.742 0 0 0 9 15.756a31.742 31.742 0 0 0 6.144-6.017c1.667-2.278 2.05-4.245 1.19-6.006-.556-1.11-2.223-1.994-4.079-1.472a4.444 4.444 0 0 0-2.744 2.333.556.556 0 0 1-1.028 0A4.406 4.406 0 0 0 5.74 2.261 4.061 4.061 0 0 0 4.628 2.1Z" fill="#121212"/></svg>